<?xml version="1.0" encoding="UTF-8"?>
<svg width="53px" height="55px" viewBox="0 0 53 55" version="1.1" xmlns="http://www.w3.org/2000/svg" xmlns:xlink="http://www.w3.org/1999/xlink">
    <!-- Generator: Sketch 48.2 (47327) - http://www.bohemiancoding.com/sketch -->
    <title>noun_bathtub_1832658</title>
    <desc>Created with Sketch.</desc>
    <defs></defs>
    <g id="Homepage_1280" stroke="none" stroke-width="1" fill="none" fill-rule="evenodd" transform="translate(-142.000000, -2052.000000)">
        <g id="noun_bathtub_1832658" transform="translate(143.000000, 2053.000000)" fill="#97B5D5" stroke="#97B5D5" stroke-width="2">
            <g id="Group">
                <path d="M0,26.6086957 L0,27.5590062 L0,33.2608696 L51,33.2608696 L51,26.6086957 L0,26.6086957 Z M1.88888889,28.5093168 L49.1111111,28.5093168 L49.1111111,31.3602484 L1.88888889,31.3602484 L1.88888889,28.5093168 Z" id="Shape"></path>
                <path d="M49.1055776,32.2103307 L47.2277557,32.4107873 C47.2277557,32.4107873 47.6675722,36.7826179 46.4327252,41.0749464 C45.8153022,43.2211106 44.7885702,45.3117045 43.1419276,46.8473408 C41.4952839,48.3829771 39.2311729,49.4161491 35.8888889,49.4161491 L15.1111111,49.4161491 C12.2717239,49.4161491 10.2478427,48.4094604 8.67154983,46.8640454 C7.095256,45.3186304 5.99700311,43.1955967 5.26085022,41.0304006 C3.78854558,36.7000093 3.77777778,32.310559 3.77777778,32.310559 L1.88888889,32.310559 C1.88888889,32.310559 1.87812128,36.9490591 3.47526042,41.6466181 C4.27383013,43.9953971 5.47766067,46.3863385 7.35449183,48.2264049 C9.23132394,50.0664713 11.8116094,51.3167702 15.1111111,51.3167702 L35.8888889,51.3167702 C39.6299382,51.3167702 42.4422161,50.0929545 44.4257808,48.2431095 C46.4093464,46.3932644 47.5666422,43.9698831 48.2478303,41.6020722 C49.6102056,36.8664505 49.1055776,32.2103307 49.1055776,32.2103307 Z" id="Shape"></path>
                <path d="M12.1873916,0.52341319 C10.5766832,0.679836399 8.93119933,1.35134152 7.69205706,2.68388495 C6.45291478,4.01642828 5.66666667,5.98695652 5.66666667,8.55279503 L5.66666667,27.8838195 L7.55555556,27.8838195 L7.55555556,8.55279503 C7.55555556,6.36708075 8.18597411,4.93391093 9.07183183,3.98128152 C9.95768956,3.0286522 11.1455391,2.53348861 12.3681639,2.41475396 C13.5907888,2.2960193 14.8287005,2.57679911 15.6884764,3.09407757 C16.5482524,3.61135603 17,4.26860202 17,5.076366 L18.8888889,5.076366 C18.8888889,3.50835358 17.9239698,2.22380074 16.6587458,1.46258734 C15.3935217,0.701373952 13.7981001,0.366990076 12.1873916,0.52341319 Z" id="Shape"></path>
                <path d="M17.9444444,3.80124224 C15.4574077,3.80124224 13.8808457,4.32526458 13.0432944,5.50511942 C12.2057431,6.68497388 12.2777778,8.07763975 12.2777778,9.50310559 L12.2777778,10.4534161 L23.6111111,10.4534161 L23.6111111,9.50310559 C23.6111111,8.07763975 23.6831458,6.68497388 22.8455945,5.50511942 C22.0080432,4.32526458 20.4314812,3.80124224 17.9444444,3.80124224 Z M17.9444444,5.70186335 C20.1796299,5.70186335 20.964179,6.12815176 21.3071833,6.61134002 C21.5374653,6.93573803 21.5397112,7.79492996 21.5857207,8.55279503 L14.3031682,8.55279503 C14.3491815,7.79492996 14.3514198,6.93573803 14.5817056,6.61134002 C14.9247099,6.12815176 15.7092589,5.70186335 17.9444444,5.70186335 Z" id="Shape"></path>
                <polygon id="Shape" points="43.966471 47.0496534 42.9224179 48.6310291 46.2777778 50.875024 46.2777778 52.2670807 48.1666667 52.2670807 48.1666667 49.8578952"></polygon>
                <polygon id="Shape" points="7.97797344 47.0496534 3.77777778 49.8578952 3.77777778 52.2670807 5.66666667 52.2670807 5.66666667 50.875024 9.02202656 48.6310291"></polygon>
            </g>
        </g>
    </g>
</svg>