<?xml version="1.0" encoding="UTF-8"?>
<svg width="53px" height="45px" viewBox="0 0 53 45" version="1.1" xmlns="http://www.w3.org/2000/svg" xmlns:xlink="http://www.w3.org/1999/xlink">
    <!-- Generator: Sketch 48.2 (47327) - http://www.bohemiancoding.com/sketch -->
    <title>noun_Bed_1832657_ffffff</title>
    <desc>Created with Sketch.</desc>
    <defs></defs>
    <g id="Homepage_1280" stroke="none" stroke-width="1" fill="none" fill-rule="evenodd" transform="translate(-138.000000, -1788.000000)">
        <g id="noun_Bed_1832657_ffffff" transform="translate(139.000000, 1789.000000)" fill="#97B5D5" stroke="#97B5D5">
            <polygon id="Shape" stroke-width="2" points="1 37 1 39 50 39 50 37"></polygon>
            <polygon id="Shape" stroke-width="2" points="49 19 49 43 51 43 51 19"></polygon>
            <polygon id="Shape" stroke-width="2" points="1 21 1 23 50 23 50 21"></polygon>
            <polygon id="Shape" stroke-width="2" points="0 19 0 43 2 43 2 19"></polygon>
            <path d="M26.5033721,0 C16.5548918,0 11.2180439,1.84360349 8.31599469,3.82340703 C6.86496976,4.81332613 6.03532214,5.84530752 5.57404307,6.65207894 C5.112764,7.45885036 5.00674277,8.1340645 5.00674277,8.1340645 L5,8.19504444 L5,22 L6.83021857,22 L6.83021857,8.35068185 C6.83069333,8.34375231 6.8418023,8.11750291 7.16114331,7.55894753 C7.48609292,6.9906215 8.11285373,6.1828453 9.34930161,5.33931268 C11.822197,3.6522821 16.7818503,1.83397143 26.5033821,1.83397143 C36.2249153,1.83397143 41.1845679,3.6522821 43.6574629,5.33931268 C44.8939105,6.1828453 45.5139168,6.9906215 45.8388664,7.55894753 C46.158197,8.11743361 46.1693312,8.34267823 46.1697807,8.35068185 L46.1697807,22 L48,22 L48,8.19504444 L47.9930843,8.1340645 C47.9930843,8.1340645 47.89381,7.45885036 47.4325389,6.65207894 C46.9712574,5.84530752 46.1348567,4.81332613 44.6838335,3.82340703 C41.7817836,1.84360349 36.4516902,1.96949305e-13 26.5032092,1.96949305e-13 L26.5033721,0 Z" id="Shape" stroke-width="2"></path>
            <path d="M16.4543874,17.000095 C14.7086777,17.000095 12.9659409,17.2650313 11.5673329,17.8594128 C10.1687248,18.453921 9,19.5198386 9,20.9814513 L10.7593399,20.9814513 C10.7593399,20.3493076 11.2264103,19.838775 12.2906167,19.3864208 C13.3548235,18.9340666 14.9057795,18.6754609 16.4543874,18.6754609 C18.0029953,18.6754609 19.5544681,18.9318509 20.6377064,19.3864208 C21.7209447,19.8410224 22.2215065,20.3673498 22.2406601,21 L24,20.9566353 C23.9557649,19.495529 22.7657453,18.4515787 21.3544742,17.8593179 C19.9432032,17.2670571 18.2000974,17 16.4543874,17 L16.4543874,17.000095 Z" id="Shape" stroke-width="0.05"></path>
            <path d="M34.4511508,17.000095 C32.7062002,17.000095 30.9707305,17.2650313 29.5727308,17.8594128 C28.1747311,18.453921 26.9999997,19.5198386 27,20.9814513 L28.7650886,20.9814513 C28.7650886,20.3493076 29.2254444,19.838775 30.2891877,19.3864208 C31.3529296,18.9340666 32.9032157,18.6754609 34.4511508,18.6754609 C35.9990825,18.6754609 37.5563983,18.9318509 38.6391649,19.3864208 C39.7219314,19.8410224 40.2157657,20.3673498 40.2349107,21 L42,20.9566353 C41.9557808,19.495529 40.7597651,18.4515787 39.3491096,17.8593179 C37.9384508,17.2670571 36.1961014,17 34.4511508,17 L34.4511508,17.000095 Z" id="Shape" stroke-width="0.05"></path>
        </g>
    </g>
</svg>