<?xml version="1.0" encoding="UTF-8"?>
<svg width="53px" height="51px" viewBox="0 0 53 51" version="1.1" xmlns="http://www.w3.org/2000/svg" xmlns:xlink="http://www.w3.org/1999/xlink">
    <!-- Generator: Sketch 48.2 (47327) - http://www.bohemiancoding.com/sketch -->
    <title>noun_Night_1837495</title>
    <desc>Created with Sketch.</desc>
    <defs></defs>
    <g id="Homepage_1280" stroke="none" stroke-width="1" fill="none" fill-rule="evenodd" transform="translate(-142.000000, -2197.000000)">
        <g id="noun_Night_1837495" transform="translate(143.000000, 2198.000000)" fill="#97B5D5" fill-rule="nonzero" stroke="#97B5D5" stroke-width="2">
            <path d="M50.5402337,31.1006007 C50.1315526,30.708643 49.5866444,30.5779905 49.0417362,30.8392956 C46.4534224,31.7538634 43.5926544,32.2764736 40.8681135,32.2764736 C27.9265442,32.2764736 17.3008347,22.2162273 17.3008347,9.67358251 C17.3008347,6.92987897 17.8457429,4.31682797 18.7993322,1.83442952 C18.9355593,1.31181932 18.7993322,0.789209125 18.5268781,0.397251476 C18.118197,0.00529382638 17.5732888,-0.125358723 17.0283806,0.135946376 C6.81135225,3.79421777 0,13.2012014 0,23.7840579 C0,37.6332282 11.7155259,49 26.2918197,49 C37.1899833,49 47.1345576,42.4673725 50.9489149,32.6684313 C51.0851419,32.0151685 50.9489149,31.4925583 50.5402337,31.1006007 Z M26.2918197,46.2562965 C13.3502504,46.2562965 2.7245409,36.1960501 2.7245409,23.6534053 C2.7245409,15.1609896 7.76494157,7.45248916 15.3936561,3.66356522 C14.8487479,5.62335347 14.5762938,7.58314171 14.5762938,9.67358251 C14.5762938,23.5227528 26.2918197,34.8895246 40.8681135,34.8895246 C43.0477462,34.8895246 45.0911519,34.6282195 47.1345576,34.1056093 C43.1839733,41.4221521 35.1465776,46.2562965 26.2918197,46.2562965 Z" id="Shape"></path>
        </g>
    </g>
</svg>