<?xml version="1.0" encoding="UTF-8"?>
<svg width="53px" height="41px" viewBox="0 0 53 41" version="1.1" xmlns="http://www.w3.org/2000/svg" xmlns:xlink="http://www.w3.org/1999/xlink">
    <!-- Generator: Sketch 48.2 (47327) - http://www.bohemiancoding.com/sketch -->
    <title>Group 5</title>
    <desc>Created with Sketch.</desc>
    <defs></defs>
    <g id="Search_1280" stroke="none" stroke-width="1" fill="none" fill-rule="evenodd" transform="translate(-59.000000, -672.000000)">
        <g id="Group-5" transform="translate(59.000000, 672.000000)">
            <path d="M17.5,35 C7.83501688,35 0,27.1649831 0,17.5 C0,7.83501688 7.83501688,0 17.5,0 C27.1649831,0 35,7.83501688 35,17.5 C35,27.1649831 27.1649831,35 17.5,35 Z M17.5,29.9193548 C24.0472466,29.9193548 29.3548387,24.6117628 29.3548387,18.0645161 C29.3548387,11.5172695 24.0472466,6.20967742 17.5,6.20967742 C10.9527534,6.20967742 5.64516129,11.5172695 5.64516129,18.0645161 C5.64516129,24.6117628 10.9527534,29.9193548 17.5,29.9193548 Z" id="Oval" fill="#000000"></path>
            <path d="M32.2931034,26.3235294 L48.7068966,36.6764706" id="Line-3" stroke="#000000" stroke-width="5" stroke-linecap="square"></path>
        </g>
    </g>
</svg>