<?xml version="1.0" encoding="UTF-8"?>
<svg width="65px" height="39px" viewBox="0 0 65 39" version="1.1" xmlns="http://www.w3.org/2000/svg" xmlns:xlink="http://www.w3.org/1999/xlink">
    <!-- Generator: Sketch 48.2 (47327) - http://www.bohemiancoding.com/sketch -->
    <title>noun_people_1393005</title>
    <desc>Created with Sketch.</desc>
    <defs></defs>
    <g id="Homepage_1280" stroke="none" stroke-width="1" fill="none" fill-rule="evenodd" transform="translate(-134.000000, -1924.000000)">
        <g id="noun_people_1393005" transform="translate(135.000000, 1925.000000)" fill="#97B5D5" fill-rule="nonzero" stroke="#97B5D5" stroke-width="1.7">
            <path d="M63,27.6359279 C62.9977495,22.3435372 59.8677337,17.5681718 55.0571121,15.517717 C57.9963759,13.305076 59.2055096,9.43028544 58.0566507,5.90539441 C56.9077917,2.38050338 53.6598856,0 49.9994612,0 C46.3390368,0 43.0911307,2.38050338 41.9422717,5.90539441 C40.7934128,9.43028544 42.0025465,13.305076 44.9418103,15.517717 C41.8258847,16.8755542 39.3625773,19.4233682 38.0851293,22.6096246 L36.5237069,21.7833829 C39.4629707,19.5707419 40.6721045,15.6959513 39.5232455,12.1710603 C38.3743866,8.64616924 35.1264804,6.26566586 31.466056,6.26566586 C27.8056317,6.26566586 24.5577255,8.64616924 23.4088666,12.1710603 C22.2600076,15.6959513 23.4691414,19.5707419 26.4084052,21.7833829 L24.8469828,22.6096246 C23.554809,19.4493348 21.0933927,16.9281938 17.9903017,15.5865705 C20.9295655,13.3739295 22.1386993,9.49913891 20.9898403,5.97424788 C19.8409814,2.44935685 16.5930752,0.068853471 12.9326509,0.068853471 C9.27222648,0.068853471 6.02432033,2.44935685 4.87546138,5.97424788 C3.72660243,9.49913891 4.93573621,13.3739295 7.875,15.5865705 C3.11364655,17.6483744 0.0178692703,22.3851524 0,27.6359279 L0,30.7343341 L2.71551724,30.7343341 L2.71551724,27.6359279 C2.73194586,22.5534268 6.36899122,18.227953 11.3147641,17.4089955 C16.2605371,16.5900381 21.0651584,19.5176786 22.674569,24.3309613 C20.0681289,26.8110694 18.5931018,30.2768161 18.6012931,33.9015938 L18.6012931,37 L21.3168103,37 L21.3168103,33.9015938 C21.0027984,29.9977961 22.8786008,26.2462917 26.1694361,24.196602 C29.4602714,22.1469123 33.6076165,22.1469123 36.8984518,24.196602 C40.1892871,26.2462917 42.0650896,29.9977961 41.7510776,33.9015938 L41.7510776,37 L44.4665948,37 L44.4665948,33.9015938 C44.4747861,30.2768161 42.999759,26.8110694 40.393319,24.3309613 C42.0695924,19.619662 46.8195878,16.7901754 51.6930526,17.5999138 C56.5665173,18.4096522 60.1780409,22.6284261 60.2844828,27.6359279 L60.2844828,30.7343341 L63,30.7343341 L63,27.6359279 Z M7.19612069,8.70122342 C7.19612069,5.46895205 9.77964996,2.84867838 12.9665948,2.84867838 C16.1535397,2.84867838 18.737069,5.46895205 18.737069,8.70122342 C18.737069,11.9334948 16.1535397,14.5537685 12.9665948,14.5537685 C9.77964996,14.5537685 7.19612069,11.9334948 7.19612069,8.70122342 Z M25.7295259,14.9668893 C25.7019955,12.5936896 27.090337,10.4385984 29.2442892,9.51100132 C31.3982414,8.58340426 33.8912772,9.06698477 35.555727,10.735247 C37.2201768,12.4035092 37.7264449,14.9261027 36.8374094,17.1215137 C35.9483738,19.3169248 33.840082,20.7504166 31.5,20.7505808 C28.3393799,20.7508027 25.7667096,18.1722397 25.7295259,14.9668893 Z M44.262931,8.70122342 C44.262931,5.46895205 46.8464603,2.84867838 50.0334052,2.84867838 C53.22035,2.84867838 55.8038793,5.46895205 55.8038793,8.70122342 C55.8038793,11.9334948 53.22035,14.5537685 50.0334052,14.5537685 C46.8464603,14.5537685 44.262931,11.9334948 44.262931,8.70122342 Z" id="Shape"></path>
        </g>
    </g>
</svg>